# xmcd
#
# Track frame offsets:
#	150
#	14787
#	35427
#	54652
#	73825
#	91165
#	105492
#	129537
#	146165
#	166285
#
# Disc length: 2420 seconds
#
# Revision: 0
# Processed by: cddbd v1.4PL0 Copyright (c) Steve Scherf et al.
# Submitted via: audiograbber 1.80.04
#
DISCID=8d09720a
DTITLE=Levon Helm&The RCO All-Stars - Levon Helm and The RCO All-Stars
DYEAR=1900
DGENRE=
TTITLE0=Washer Woman
TTITLE1=The Tie That Binds
TTITLE2=You Got Me
TTITLE3=Blues So Bad
TTITLE4=Sing, Sing, Sing (Lets Make A Better World)
TTITLE5=Milk Cow Boogie
TTITLE6=Rain Down Tears
TTITLE7=A Mood I Was In
TTITLE8=Havana Moon
TTITLE9=Thats My Home
EXTD=
EXTT0=
EXTT1=
EXTT2=
EXTT3=
EXTT4=
EXTT5=
EXTT6=
EXTT7=
EXTT8=
EXTT9=
PLAYORDER=
